<?xml version="1.0" encoding="UTF-8" standalone="no"?>
<!-- Created with Inkscape (http://www.inkscape.org/) -->

<svg
   xmlns:dc="http://purl.org/dc/elements/1.1/"
   xmlns:cc="http://creativecommons.org/ns#"
   xmlns:rdf="http://www.w3.org/1999/02/22-rdf-syntax-ns#"
   xmlns:svg="http://www.w3.org/2000/svg"
   xmlns="http://www.w3.org/2000/svg"
   xmlns:sodipodi="http://sodipodi.sourceforge.net/DTD/sodipodi-0.dtd"
   xmlns:inkscape="http://www.inkscape.org/namespaces/inkscape"
   width="210mm"
   height="297mm"
   viewBox="0 0 744.09448819 1052.3622047"
   id="svg2"
   version="1.1"
   inkscape:version="0.91 r13725"
   sodipodi:docname="player.svg"
   inkscape:export-filename="/home/kuroda/dev/shinshiro/phaser_trial/app/javascript/images/player2.png"
   inkscape:export-xdpi="10.18"
   inkscape:export-ydpi="10.18">
  <defs
     id="defs4" />
  <sodipodi:namedview
     id="base"
     pagecolor="#ffffff"
     bordercolor="#666666"
     borderopacity="1.0"
     inkscape:pageopacity="0.0"
     inkscape:pageshadow="2"
     inkscape:zoom="0.35"
     inkscape:cx="375"
     inkscape:cy="520"
     inkscape:document-units="px"
     inkscape:current-layer="layer1"
     showgrid="false"
     inkscape:window-width="948"
     inkscape:window-height="828"
     inkscape:window-x="144"
     inkscape:window-y="108"
     inkscape:window-maximized="0" />
  <metadata
     id="metadata7">
    <rdf:RDF>
      <cc:Work
         rdf:about="">
        <dc:format>image/svg+xml</dc:format>
        <dc:type
           rdf:resource="http://purl.org/dc/dcmitype/StillImage" />
      </cc:Work>
    </rdf:RDF>
  </metadata>
  <g
     inkscape:label="レイヤー 1"
     inkscape:groupmode="layer"
     id="layer1">
    <path
       style="fill:none;fill-rule:evenodd;stroke:#000000;stroke-width:1px;stroke-linecap:butt;stroke-linejoin:miter;stroke-opacity:1"
       d="m 515.59044,115.21935 c 232.6005,202.72101 -36.34548,185.24928 2.85714,302.85714 16.91286,50.73857 177.14286,-8.93424 177.14286,277.14286 0,29.91205 5.78943,250.03757 -42.85714,225.71428 -45.85162,-22.9258 -20.72522,-187.37731 -77.14286,-168.57143 -42.80149,14.26717 13.78334,202.60596 -100,145.71429 -37.64897,-18.82448 5.73149,-162.85714 -57.14286,-162.85714 -48.96917,0 -34.56442,148.71078 -68.57143,165.71428 -73.03303,36.51652 -39.50673,-152.61051 -65.71428,-165.71428 -39.50888,-19.75444 -68.20338,154.28571 -88.57143,154.28571 -106.699521,0 -48.57143,-150.50414 -48.57143,-202.85714 0,-113.82603 51.31603,-234.22945 148.57143,-282.85714 16.10595,-8.05298 111.42857,-27.03692 111.42857,-31.42858 0,-60.38388 -56.8566,-152.00108 -34.28571,-197.14285 25.04831,-50.09663 93.03415,-88.470283 142.85714,-60 z"
       id="path3342"
       inkscape:connector-curvature="0" />
    <path
       style="fill:none;fill-rule:evenodd;stroke:#000000;stroke-width:1px;stroke-linecap:butt;stroke-linejoin:miter;stroke-opacity:1"
       d="m 535.59044,246.64792 c 53.97362,-27.00119 -38.77364,-67.85387 0,0 z"
       id="path3344"
       inkscape:connector-curvature="0" />
    <path
       style="fill:none;fill-rule:evenodd;stroke:#000000;stroke-width:1px;stroke-linecap:butt;stroke-linejoin:miter;stroke-opacity:1"
       d="m 484.16187,240.93363 c 50.17158,-28.73792 -38.66656,-54.13318 0,0 z"
       id="path3348"
       inkscape:connector-curvature="0" />
    <path
       style="fill:#000000"
       d="m 675.23633,904.7166 c 11.4523,-25.01511 15.93115,-63.5648 17.66793,-152.06868 2.30115,-117.26352 -5.13413,-174.09574 -29.10781,-222.48829 -20.53191,-41.44508 -45.22906,-61.68474 -99.6088,-81.63077 -42.39392,-15.54974 -48.42526,-21.41606 -49.96095,-48.594 -1.54859,-27.40627 6.86705,-42.27634 40.91997,-72.30373 14.15121,-12.47835 29.36158,-26.74006 33.80081,-31.6927 36.04214,-40.21052 23.52018,-83.03909 -43.89172,-150.12186 -33.76487,-33.60002 -43.89918,-38.70915 -73.31536,-36.96136 -25.79009,1.53234 -47.72148,11.88575 -69.82099,32.96119 -25.11609,23.95227 -31.54746,36.23934 -31.54746,60.27118 0,21.90321 1.05772,26.49085 20.8792,90.56034 7.7786,25.14286 14.91592,53.71247 15.86075,63.48802 2.05311,21.24267 7.5841,17.99429 -59.90566,35.18304 -57.00394,14.51814 -73.41103,22.97871 -105.07994,54.18608 -56.37778,55.55614 -87.30423,131.40677 -92.81129,227.6302 -0.97397,17.01766 -4.45914,45.72694 -7.74486,63.79837 -3.93054,21.61812 -6.04828,45.57509 -6.19114,70.03789 -0.20143,34.47351 0.31414,38.21817 7.07969,51.42857 8.55637,16.70726 23.49248,26.42663 42.56657,27.69931 11.34854,0.7572 12.99077,0.0114 17.7858,-8.06525 2.90554,-4.89472 11.83534,-27.39472 19.84397,-50 19.68308,-55.55772 31.11277,-79.64603 42.22991,-89.00049 10.39146,-8.74383 14.07317,-9.4628 21.32046,-4.16343 6.96651,5.094 9.54937,19.31083 13.22106,72.77263 4.89625,71.29189 12.23743,92.74212 32.32685,94.45603 20.5752,1.75537 29.9214,-10.92194 37.68938,-51.12223 13.47862,-69.75397 16.04308,-80.87954 21.64385,-93.89888 7.11223,-16.53278 15.54183,-23.00129 29.97479,-23.00129 7.93056,0 12.60491,2.21869 19.77004,9.3838 11.86294,11.86294 14.92358,26.05957 18.42813,85.47803 3.04666,51.65511 6.3814,62.0028 22.43694,69.62166 12.02883,5.70802 31.42245,8.43585 41.67711,5.86211 16.47381,-4.13469 25.46049,-30.02654 30.30909,-87.32471 4.45767,-52.67835 8.97951,-63.80666 27.42607,-67.49598 20.11963,-4.02391 30.39453,17.10523 41.07942,84.47509 9.73787,61.39874 19.25767,83.49026 36.70907,85.18646 8.71009,0.84657 9.69237,-0.0286 16.33912,-14.54635 z M 529.14238,238.07244 c -6.1715,-14.77048 -4.33736,-28.02858 4.04182,-29.21631 18.73736,-2.65598 27.43656,19.11013 12.98903,32.49964 -9.99738,9.26526 -11.94457,8.88987 -17.03085,-3.28333 z m -51.22147,-4.18566 c -2.49181,-4.81862 -4.13197,-12.21148 -3.6448,-16.42857 0.69731,-6.03614 2.61117,-7.86497 8.99557,-8.59588 8.85389,-1.01363 19.03304,6.13031 19.03304,13.35779 0,4.5733 -13.6629,20.4278 -17.60403,20.4278 -1.23707,0 -4.28797,-3.94251 -6.77978,-8.76114 z"
       id="path3352"
       inkscape:connector-curvature="0" />
  </g>
</svg>
